<svg width="200" height="60" viewBox="0 0 200 60" fill="none" xmlns="http://www.w3.org/2000/svg">
<rect width="60" height="60" fill="black"/>
<path d="M11.752 35.232H14.056C14.488 35.232 14.704 35.016 14.704 34.584V20.256C14.704 20.032 14.656 19.872 14.56 19.776C14.464 19.664 14.296 19.608 14.056 19.608H13.192C12.184 19.608 11.312 20.12 10.576 21.144C10.112 21.8 9.8 22.624 9.64 23.616C9.48 24.592 9.4 25.312 9.4 25.776H8.728L8.92 18.912H22.696L22.888 25.776H22.216C22.216 25.312 22.136 24.592 21.976 23.616C21.816 22.624 21.504 21.8 21.04 21.144C20.304 20.12 19.432 19.608 18.424 19.608H17.56C17.32 19.608 17.152 19.664 17.056 19.776C16.96 19.872 16.912 20.032 16.912 20.256V34.584C16.912 35.016 17.128 35.232 17.56 35.232H19.864V36H11.752V35.232ZM28.0208 35.232H29.7488C29.9728 35.232 30.1328 35.184 30.2288 35.088C30.3408 34.976 30.3968 34.808 30.3968 34.584V20.328C30.3968 20.104 30.3408 19.944 30.2288 19.848C30.1328 19.736 29.9728 19.68 29.7488 19.68H28.0208V18.912H34.9808V19.68H33.2528C33.0288 19.68 32.8608 19.736 32.7488 19.848C32.6528 19.944 32.6048 20.104 32.6048 20.328V34.584C32.6048 34.808 32.6528 34.976 32.7488 35.088C32.8608 35.184 33.0288 35.232 33.2528 35.232H38.2448C38.4688 35.232 38.6288 35.184 38.7248 35.088C38.8368 34.976 38.8928 34.808 38.8928 34.584V20.328C38.8928 20.104 38.8368 19.944 38.7248 19.848C38.6288 19.736 38.4688 19.68 38.2448 19.68H36.5168V18.912H43.4768V19.68H41.7488C41.5248 19.68 41.3568 19.736 41.2448 19.848C41.1488 19.944 41.1008 20.104 41.1008 20.328V34.584C41.1008 34.808 41.1488 34.976 41.2448 35.088C41.3568 35.184 41.5248 35.232 41.7488 35.232H46.7408C46.9648 35.232 47.1248 35.184 47.2208 35.088C47.3328 34.976 47.3888 34.808 47.3888 34.584V20.328C47.3888 20.104 47.3328 19.944 47.2208 19.848C47.1248 19.736 46.9648 19.68 46.7408 19.68H45.0128V18.912H51.9728V19.68H50.2448C50.0208 19.68 49.8528 19.736 49.7408 19.848C49.6448 19.944 49.5968 20.104 49.5968 20.328V34.584C49.5968 34.808 49.6448 34.976 49.7408 35.088C49.8528 35.184 50.0208 35.232 50.2448 35.232H51.9728V36H28.0208V35.232Z" fill="white"/>
<path d="M66.992 23.488H68.144C68.2933 23.488 68.4 23.456 68.464 23.392C68.5387 23.3173 68.576 23.2053 68.576 23.056V13.552C68.576 13.4027 68.5387 13.296 68.464 13.232C68.4 13.1573 68.2933 13.12 68.144 13.12H66.992V12.608H71.632V13.12H70.48C70.3307 13.12 70.2187 13.1573 70.144 13.232C70.08 13.296 70.048 13.4027 70.048 13.552V23.056C70.048 23.2053 70.08 23.3173 70.144 23.392C70.2187 23.456 70.3307 23.488 70.48 23.488H73.808C73.9573 23.488 74.064 23.456 74.128 23.392C74.2027 23.3173 74.24 23.2053 74.24 23.056V13.552C74.24 13.4027 74.2027 13.296 74.128 13.232C74.064 13.1573 73.9573 13.12 73.808 13.12H72.656V12.608H77.296V13.12H76.144C75.9947 13.12 75.8827 13.1573 75.808 13.232C75.744 13.296 75.712 13.4027 75.712 13.552V23.056C75.712 23.2053 75.744 23.3173 75.808 23.392C75.8827 23.456 75.9947 23.488 76.144 23.488H79.472C79.6213 23.488 79.728 23.456 79.792 23.392C79.8667 23.3173 79.904 23.2053 79.904 23.056V13.552C79.904 13.4027 79.8667 13.296 79.792 13.232C79.728 13.1573 79.6213 13.12 79.472 13.12H78.32V12.608H82.96V13.12H81.808C81.6587 13.12 81.5467 13.1573 81.472 13.232C81.408 13.296 81.376 13.4027 81.376 13.552V23.056C81.376 23.2053 81.408 23.3173 81.472 23.392C81.5467 23.456 81.6587 23.488 81.808 23.488H82.96V24H66.992V23.488ZM94.473 24.192C93.929 24.192 93.513 24.0693 93.225 23.824C92.937 23.5787 92.745 23.2693 92.649 22.896C92.553 22.512 92.4943 22.0373 92.473 21.472C92.4197 20.4587 92.297 19.6747 92.105 19.12C91.9237 18.5547 91.5663 18.272 91.033 18.272H89.273V23.056C89.273 23.344 89.417 23.488 89.705 23.488H90.857V24H86.217V23.488H87.369C87.657 23.488 87.801 23.344 87.801 23.056V13.552C87.801 13.4027 87.7637 13.296 87.689 13.232C87.625 13.1573 87.5183 13.12 87.369 13.12H86.217V12.608H90.857V13.12H89.705C89.5557 13.12 89.4437 13.1573 89.369 13.232C89.305 13.296 89.273 13.4027 89.273 13.552V17.76H90.649C91.2463 17.76 91.6623 17.5413 91.897 17.104C92.1317 16.656 92.2757 15.9253 92.329 14.912C92.361 14.208 92.4677 13.6853 92.649 13.344C92.7983 13.056 92.9957 12.832 93.241 12.672C93.497 12.5013 93.7583 12.416 94.025 12.416C94.505 12.416 94.889 12.5333 95.177 12.768C95.5397 13.0987 95.721 13.5253 95.721 14.048C95.721 14.432 95.6357 14.7573 95.465 15.024C95.3583 15.184 95.2197 15.312 95.049 15.408C94.889 15.504 94.7183 15.552 94.537 15.552C94.249 15.552 94.025 15.472 93.865 15.312C93.6943 15.1413 93.609 14.9387 93.609 14.704C93.609 14.5013 93.6463 14.336 93.721 14.208C93.8063 14.08 93.929 13.9627 94.089 13.856C94.3237 13.6747 94.441 13.5147 94.441 13.376C94.441 13.2587 94.3877 13.1787 94.281 13.136C94.1743 13.0827 94.0677 13.056 93.961 13.056C93.5557 13.056 93.273 13.2373 93.113 13.6C92.9637 13.9627 92.8623 14.56 92.809 15.392C92.7663 16.0427 92.6757 16.5867 92.537 17.024C92.3983 17.4613 92.1317 17.7707 91.737 17.952V18.032C92.4303 18.352 92.9423 18.6613 93.273 18.96C93.6037 19.2587 93.833 19.632 93.961 20.08C94.089 20.5173 94.1797 21.1573 94.233 22C94.265 22.4907 94.329 22.8587 94.425 23.104C94.5317 23.3387 94.7237 23.456 95.001 23.456C95.321 23.456 95.561 23.2373 95.721 22.8C95.881 22.352 95.961 21.8987 95.961 21.44H96.361C96.361 22.0693 96.2277 22.688 95.961 23.296C95.6943 23.8933 95.1983 24.192 94.473 24.192ZM104.226 24.288C103.33 24.288 102.53 24.0053 101.826 23.44C101.122 22.8747 100.572 22.1333 100.178 21.216C99.783 20.288 99.5856 19.3173 99.5856 18.304C99.5856 17.2907 99.783 16.3253 100.178 15.408C100.572 14.48 101.122 13.7333 101.826 13.168C102.53 12.6027 103.33 12.32 104.226 12.32C105.122 12.32 105.922 12.6027 106.626 13.168C107.33 13.7333 107.879 14.48 108.274 15.408C108.668 16.3253 108.866 17.2907 108.866 18.304C108.866 19.3173 108.668 20.288 108.274 21.216C107.879 22.1333 107.33 22.8747 106.626 23.44C105.922 24.0053 105.122 24.288 104.226 24.288ZM104.226 23.776C105.271 23.776 106.023 23.3013 106.482 22.352C106.94 21.392 107.17 20.0427 107.17 18.304C107.17 16.5547 106.94 15.2053 106.482 14.256C106.023 13.3067 105.271 12.832 104.226 12.832C103.18 12.832 102.428 13.3067 101.97 14.256C101.511 15.2053 101.282 16.5547 101.282 18.304C101.282 20.0427 101.511 21.392 101.97 22.352C102.428 23.3013 103.18 23.776 104.226 23.776ZM113.326 24.192C112.835 24.192 112.425 24.032 112.094 23.712C111.774 23.392 111.614 22.9547 111.614 22.4C111.614 21.952 111.747 21.5947 112.014 21.328C112.291 21.0613 112.622 20.928 113.006 20.928C113.305 20.928 113.534 21.024 113.694 21.216C113.865 21.3973 113.95 21.6107 113.95 21.856C113.95 22.1013 113.891 22.2987 113.774 22.448C113.667 22.5973 113.518 22.736 113.326 22.864C113.123 23.0133 113.022 23.1733 113.022 23.344C113.022 23.4507 113.059 23.536 113.134 23.6C113.219 23.6533 113.326 23.68 113.454 23.68C113.923 23.68 114.27 23.552 114.494 23.296C114.718 23.0293 114.894 22.6987 115.022 22.304C115.246 21.6213 115.422 20.4693 115.55 18.848C115.689 17.216 115.758 15.6213 115.758 14.064C115.758 13.744 115.678 13.5093 115.518 13.36C115.358 13.2 115.091 13.12 114.718 13.12H113.982V12.608H122.654V13.12H121.502C121.353 13.12 121.241 13.1573 121.166 13.232C121.102 13.296 121.07 13.4027 121.07 13.552V23.056C121.07 23.344 121.214 23.488 121.502 23.488H122.654V24H118.014V23.488H119.166C119.454 23.488 119.598 23.344 119.598 23.056V13.552C119.598 13.392 119.566 13.28 119.502 13.216C119.449 13.152 119.347 13.12 119.198 13.12H117.822C117.385 13.12 117.059 13.2373 116.846 13.472C116.633 13.696 116.494 13.9787 116.43 14.32C116.366 14.6613 116.323 15.104 116.302 15.648C116.185 18.5707 115.966 20.6987 115.646 22.032C115.529 22.544 115.305 23.0347 114.974 23.504C114.643 23.9627 114.094 24.192 113.326 24.192ZM125.667 23.488H126.259C126.889 23.488 127.347 23.0987 127.635 22.32L131.075 12.608H131.475L134.947 22.784C135.054 23.0507 135.182 23.2373 135.331 23.344C135.481 23.44 135.673 23.488 135.907 23.488H136.803V24H131.843V23.488H132.899C133.059 23.488 133.193 23.4507 133.299 23.376C133.406 23.2907 133.459 23.1947 133.459 23.088C133.459 22.9493 133.438 22.832 133.395 22.736L132.643 20.608H128.899L128.515 21.68C128.366 22.1067 128.291 22.416 128.291 22.608C128.291 22.8427 128.35 23.0507 128.467 23.232C128.585 23.4027 128.787 23.488 129.075 23.488H130.051V24H125.667V23.488ZM129.075 20.096H132.467L130.803 15.216L129.075 20.096ZM69.168 45.488H70.704C70.992 45.488 71.136 45.344 71.136 45.056V35.504C71.136 35.3547 71.104 35.248 71.04 35.184C70.976 35.1093 70.864 35.072 70.704 35.072H70.128C69.456 35.072 68.8747 35.4133 68.384 36.096C68.0747 36.5333 67.8667 37.0827 67.76 37.744C67.6533 38.3947 67.6 38.8747 67.6 39.184H67.152L67.28 34.608H76.464L76.592 39.184H76.144C76.144 38.8747 76.0907 38.3947 75.984 37.744C75.8773 37.0827 75.6693 36.5333 75.36 36.096C74.8693 35.4133 74.288 35.072 73.616 35.072H73.04C72.88 35.072 72.768 35.1093 72.704 35.184C72.64 35.248 72.608 35.3547 72.608 35.504V45.056C72.608 45.344 72.752 45.488 73.04 45.488H74.576V46H69.168V45.488ZM80.0139 45.488H81.1659C81.4539 45.488 81.5979 45.344 81.5979 45.056V35.552C81.5979 35.4027 81.5605 35.296 81.4859 35.232C81.4219 35.1573 81.3152 35.12 81.1659 35.12H80.0139V34.608H85.3579C86.1045 34.608 86.7659 34.736 87.3419 34.992C87.9285 35.2373 88.3819 35.5893 88.7019 36.048C89.0325 36.496 89.1979 37.008 89.1979 37.584C89.1979 38.1707 89.0325 38.6933 88.7019 39.152C88.3819 39.6107 87.9285 39.9733 87.3419 40.24C86.7659 40.496 86.1045 40.624 85.3579 40.624H83.0699V45.056C83.0699 45.2053 83.1019 45.3173 83.1659 45.392C83.2299 45.456 83.3419 45.488 83.5019 45.488H84.9099V46H80.0139V45.488ZM85.5659 40.112C86.1419 40.112 86.6059 39.8667 86.9579 39.376C87.3205 38.8747 87.5019 38.2773 87.5019 37.584C87.5019 36.8907 87.3259 36.3093 86.9739 35.84C86.6219 35.36 86.1525 35.12 85.5659 35.12H83.5019C83.3525 35.12 83.2405 35.1573 83.1659 35.232C83.1019 35.296 83.0699 35.4027 83.0699 35.552V40.112H85.5659ZM97.2569 46.288C96.3609 46.288 95.5609 46.0053 94.8569 45.44C94.1529 44.8747 93.6035 44.1333 93.2089 43.216C92.8142 42.288 92.6169 41.3173 92.6169 40.304C92.6169 39.2907 92.8142 38.3253 93.2089 37.408C93.6035 36.48 94.1529 35.7333 94.8569 35.168C95.5609 34.6027 96.3609 34.32 97.2569 34.32C98.1529 34.32 98.9529 34.6027 99.6569 35.168C100.361 35.7333 100.91 36.48 101.305 37.408C101.7 38.3253 101.897 39.2907 101.897 40.304C101.897 41.3173 101.7 42.288 101.305 43.216C100.91 44.1333 100.361 44.8747 99.6569 45.44C98.9529 46.0053 98.1529 46.288 97.2569 46.288ZM97.2569 45.776C98.3022 45.776 99.0542 45.3013 99.5129 44.352C99.9715 43.392 100.201 42.0427 100.201 40.304C100.201 38.5547 99.9715 37.2053 99.5129 36.256C99.0542 35.3067 98.3022 34.832 97.2569 34.832C96.2115 34.832 95.4595 35.3067 95.0009 36.256C94.5422 37.2053 94.3129 38.5547 94.3129 40.304C94.3129 42.0427 94.5422 43.392 95.0009 44.352C95.4595 45.3013 96.2115 45.776 97.2569 45.776ZM105.292 45.488H106.444C106.732 45.488 106.876 45.344 106.876 45.056V35.552C106.876 35.4027 106.839 35.296 106.764 35.232C106.7 35.1573 106.593 35.12 106.444 35.12H105.292V34.608H109.932V35.12H108.78C108.631 35.12 108.519 35.1573 108.444 35.232C108.38 35.296 108.348 35.4027 108.348 35.552V43.6L112.892 36.08V35.552C112.892 35.4027 112.855 35.296 112.78 35.232C112.716 35.1573 112.609 35.12 112.46 35.12H111.308V34.608H115.948V35.12H114.796C114.508 35.12 114.364 35.264 114.364 35.552V45.056C114.364 45.344 114.508 45.488 114.796 45.488H115.948V46H111.308V45.488H112.46C112.748 45.488 112.892 45.344 112.892 45.056V37.008L108.348 44.528V45.056C108.348 45.344 108.492 45.488 108.78 45.488H109.932V46H105.292V45.488ZM121.381 45.488H122.917C123.205 45.488 123.349 45.344 123.349 45.056V35.504C123.349 35.3547 123.317 35.248 123.253 35.184C123.189 35.1093 123.077 35.072 122.917 35.072H122.341C121.669 35.072 121.087 35.4133 120.597 36.096C120.287 36.5333 120.079 37.0827 119.973 37.744C119.866 38.3947 119.813 38.8747 119.813 39.184H119.365L119.493 34.608H128.677L128.805 39.184H128.357C128.357 38.8747 128.303 38.3947 128.197 37.744C128.09 37.0827 127.882 36.5333 127.573 36.096C127.082 35.4133 126.501 35.072 125.829 35.072H125.253C125.093 35.072 124.981 35.1093 124.917 35.184C124.853 35.248 124.821 35.3547 124.821 35.504V45.056C124.821 45.344 124.965 45.488 125.253 45.488H126.789V46H121.381V45.488ZM137.09 46.288C136.098 46.288 135.245 46 134.53 45.424C133.816 44.848 133.272 44.096 132.898 43.168C132.536 42.2293 132.354 41.2427 132.354 40.208C132.354 39.1307 132.536 38.144 132.898 37.248C133.261 36.352 133.778 35.6427 134.45 35.12C135.122 34.5867 135.906 34.32 136.802 34.32C137.272 34.32 137.714 34.4267 138.13 34.64C138.546 34.8533 138.888 35.0827 139.154 35.328C139.41 35.5627 139.581 35.68 139.666 35.68C139.752 35.68 139.81 35.6533 139.842 35.6C139.885 35.5467 139.928 35.4613 139.97 35.344L140.274 34.448H140.674L140.738 39.408H140.29C140.056 38.3947 139.752 37.5467 139.378 36.864C139.005 36.1707 138.594 35.6587 138.146 35.328C137.709 34.9973 137.272 34.832 136.834 34.832C135.821 34.832 135.101 35.2907 134.674 36.208C134.258 37.1253 134.05 38.4587 134.05 40.208C134.05 42.0107 134.269 43.392 134.706 44.352C135.144 45.3013 135.938 45.776 137.09 45.776C138.114 45.776 138.893 45.3973 139.426 44.64C139.97 43.872 140.28 42.944 140.354 41.856H140.93C140.898 42.4853 140.765 43.136 140.53 43.808C140.306 44.48 139.912 45.0613 139.346 45.552C138.781 46.0427 138.029 46.288 137.09 46.288ZM152.801 46.192C152.257 46.192 151.841 46.0693 151.553 45.824C151.265 45.5787 151.073 45.2693 150.977 44.896C150.881 44.512 150.822 44.0373 150.801 43.472C150.748 42.4587 150.625 41.6747 150.433 41.12C150.252 40.5547 149.894 40.272 149.361 40.272H147.601V45.056C147.601 45.344 147.745 45.488 148.033 45.488H149.185V46H144.545V45.488H145.697C145.985 45.488 146.129 45.344 146.129 45.056V35.552C146.129 35.4027 146.092 35.296 146.017 35.232C145.953 35.1573 145.846 35.12 145.697 35.12H144.545V34.608H149.185V35.12H148.033C147.884 35.12 147.772 35.1573 147.697 35.232C147.633 35.296 147.601 35.4027 147.601 35.552V39.76H148.977C149.574 39.76 149.99 39.5413 150.225 39.104C150.46 38.656 150.604 37.9253 150.657 36.912C150.689 36.208 150.796 35.6853 150.977 35.344C151.126 35.056 151.324 34.832 151.569 34.672C151.825 34.5013 152.086 34.416 152.353 34.416C152.833 34.416 153.217 34.5333 153.505 34.768C153.868 35.0987 154.049 35.5253 154.049 36.048C154.049 36.432 153.964 36.7573 153.793 37.024C153.686 37.184 153.548 37.312 153.377 37.408C153.217 37.504 153.046 37.552 152.865 37.552C152.577 37.552 152.353 37.472 152.193 37.312C152.022 37.1413 151.937 36.9387 151.937 36.704C151.937 36.5013 151.974 36.336 152.049 36.208C152.134 36.08 152.257 35.9627 152.417 35.856C152.652 35.6747 152.769 35.5147 152.769 35.376C152.769 35.2587 152.716 35.1787 152.609 35.136C152.502 35.0827 152.396 35.056 152.289 35.056C151.884 35.056 151.601 35.2373 151.441 35.6C151.292 35.9627 151.19 36.56 151.137 37.392C151.094 38.0427 151.004 38.5867 150.865 39.024C150.726 39.4613 150.46 39.7707 150.065 39.952V40.032C150.758 40.352 151.27 40.6613 151.601 40.96C151.932 41.2587 152.161 41.632 152.289 42.08C152.417 42.5173 152.508 43.1573 152.561 44C152.593 44.4907 152.657 44.8587 152.753 45.104C152.86 45.3387 153.052 45.456 153.329 45.456C153.649 45.456 153.889 45.2373 154.049 44.8C154.209 44.352 154.289 43.8987 154.289 43.44H154.689C154.689 44.0693 154.556 44.688 154.289 45.296C154.022 45.8933 153.526 46.192 152.801 46.192ZM157.077 45.488H157.669C158.298 45.488 158.757 45.0987 159.045 44.32L162.485 34.608H162.885L166.357 44.784C166.463 45.0507 166.591 45.2373 166.741 45.344C166.89 45.44 167.082 45.488 167.317 45.488H168.213V46H163.253V45.488H164.309C164.469 45.488 164.602 45.4507 164.709 45.376C164.815 45.2907 164.869 45.1947 164.869 45.088C164.869 44.9493 164.847 44.832 164.805 44.736L164.053 42.608H160.309L159.925 43.68C159.775 44.1067 159.701 44.416 159.701 44.608C159.701 44.8427 159.759 45.0507 159.877 45.232C159.994 45.4027 160.197 45.488 160.485 45.488H161.461V46H157.077V45.488ZM160.485 42.096H163.877L162.213 37.216L160.485 42.096ZM172.735 46.192C171.999 46.192 171.525 45.92 171.311 45.376C171.098 44.832 170.991 44.1867 170.991 43.44H171.391C171.391 44.784 171.695 45.456 172.303 45.456C172.538 45.456 172.703 45.3333 172.799 45.088C172.895 44.832 172.959 44.432 172.991 43.888C173.045 43.1093 173.237 42.4267 173.567 41.84C173.909 41.2533 174.501 40.768 175.343 40.384V40.304C174.458 40.208 173.738 39.9147 173.183 39.424C172.639 38.9227 172.367 38.3093 172.367 37.584C172.367 36.9653 172.533 36.432 172.863 35.984C173.194 35.536 173.626 35.1947 174.159 34.96C174.703 34.7253 175.279 34.608 175.887 34.608H181.487V35.12H180.335C180.186 35.12 180.074 35.1573 179.999 35.232C179.935 35.296 179.903 35.4027 179.903 35.552V45.056C179.903 45.344 180.047 45.488 180.335 45.488H181.487V46H176.575V45.488H177.999C178.159 45.488 178.271 45.456 178.335 45.392C178.399 45.3173 178.431 45.2053 178.431 45.056V40.432H176.239C175.781 40.432 175.434 40.6933 175.199 41.216C174.965 41.728 174.831 42.3627 174.799 43.12C174.767 43.76 174.703 44.2933 174.607 44.72C174.511 45.136 174.314 45.488 174.015 45.776C173.727 46.0533 173.301 46.192 172.735 46.192ZM178.431 39.92V35.552C178.431 35.4027 178.394 35.296 178.319 35.232C178.255 35.1573 178.149 35.12 177.999 35.12H175.999C175.423 35.12 174.954 35.3547 174.591 35.824C174.239 36.2933 174.063 36.8693 174.063 37.552C174.063 38.3093 174.25 38.896 174.623 39.312C174.997 39.7173 175.637 39.92 176.543 39.92H178.431Z" fill="black"/>
</svg>
